<svg width="64" height="64" viewBox="0 0 64 64" fill="none" xmlns="http://www.w3.org/2000/svg">
<path d="M31.9997 5.33301C17.3063 5.33301 5.33301 17.3063 5.33301 31.9997C5.33301 46.693 17.3063 58.6663 31.9997 58.6663C46.693 58.6663 58.6663 46.693 58.6663 31.9997C58.6663 17.3063 46.693 5.33301 31.9997 5.33301ZM40.9597 38.133C41.733 38.9063 41.733 40.1863 40.9597 40.9597C40.5597 41.3597 40.053 41.5463 39.5463 41.5463C39.0397 41.5463 38.533 41.3597 38.133 40.9597L31.9997 34.8263L25.8663 40.9597C25.4663 41.3597 24.9597 41.5463 24.453 41.5463C23.9463 41.5463 23.4397 41.3597 23.0397 40.9597C22.2663 40.1863 22.2663 38.9063 23.0397 38.133L29.173 31.9997L23.0397 25.8663C22.2663 25.093 22.2663 23.813 23.0397 23.0397C23.813 22.2663 25.093 22.2663 25.8663 23.0397L31.9997 29.173L38.133 23.0397C38.9063 22.2663 40.1863 22.2663 40.9597 23.0397C41.733 23.813 41.733 25.093 40.9597 25.8663L34.8263 31.9997L40.9597 38.133Z" fill="#FFB7B7"/>
</svg>
