<svg width="64" height="64" viewBox="0 0 64 64" fill="none" xmlns="http://www.w3.org/2000/svg">
<path d="M31.9987 5.33325C17.3054 5.33325 5.33203 17.3066 5.33203 31.9999C5.33203 46.6933 17.3054 58.6666 31.9987 58.6666C46.692 58.6666 58.6654 46.6933 58.6654 31.9999C58.6654 17.3066 46.692 5.33325 31.9987 5.33325ZM40.9587 38.1333C41.732 38.9066 41.732 40.1866 40.9587 40.9599C40.5587 41.3599 40.052 41.5466 39.5454 41.5466C39.0387 41.5466 38.532 41.3599 38.132 40.9599L31.9987 34.8266L25.8654 40.9599C25.4654 41.3599 24.9587 41.5466 24.452 41.5466C23.9454 41.5466 23.4387 41.3599 23.0387 40.9599C22.2654 40.1866 22.2654 38.9066 23.0387 38.1333L29.172 31.9999L23.0387 25.8666C22.2654 25.0933 22.2654 23.8133 23.0387 23.0399C23.812 22.2666 25.092 22.2666 25.8654 23.0399L31.9987 29.1733L38.132 23.0399C38.9054 22.2666 40.1854 22.2666 40.9587 23.0399C41.732 23.8133 41.732 25.0933 40.9587 25.8666L34.8254 31.9999L40.9587 38.1333Z" fill="#FF6F6F"/>
</svg>
