<svg width="16" height="16" viewBox="0 0 16 16" fill="none" xmlns="http://www.w3.org/2000/svg">
<path d="M13.7326 2.73372V4.20039C13.7326 4.73372 13.3993 5.40039 13.0659 5.73372L10.1993 8.26706C9.79927 8.60039 9.53261 9.26706 9.53261 9.80039V12.6671C9.53261 13.0671 9.26594 13.6004 8.93261 13.8004L7.99927 14.4004C7.13261 14.9337 5.93261 14.3337 5.93261 13.2671V9.73372C5.93261 9.26706 5.66594 8.66706 5.39927 8.33372L5.08594 8.00706C4.87927 7.78706 4.83927 7.45372 5.00594 7.19372L8.41927 1.71372C8.53927 1.52039 8.75261 1.40039 8.98594 1.40039H12.3993C13.1326 1.40039 13.7326 2.00039 13.7326 2.73372Z" fill="white"/>
<path d="M6.90091 2.42039L4.53425 6.21372C4.30758 6.58039 3.78758 6.63372 3.48758 6.32039L2.86758 5.66706C2.53424 5.33372 2.26758 4.73372 2.26758 4.33372V2.80039C2.26758 2.00039 2.86758 1.40039 3.60091 1.40039H6.33424C6.85424 1.40039 7.17425 1.97372 6.90091 2.42039Z" fill="white"/>
</svg>
