<svg width="24" height="25" viewBox="0 0 24 25" fill="none" xmlns="http://www.w3.org/2000/svg">
<path d="M5.46005 18.9898V16.0698C5.46005 15.0998 6.22005 14.2298 7.30005 14.2298C8.27005 14.2298 9.14005 14.9898 9.14005 16.0698V18.8798C9.14005 20.8298 7.52005 22.4498 5.57005 22.4498C3.62005 22.4498 2.00005 20.8198 2.00005 18.8798V12.7198C1.89005 7.0998 6.33005 2.5498 11.95 2.5498C17.57 2.5498 22 7.0998 22 12.6098V18.7698C22 20.7198 20.38 22.3398 18.43 22.3398C16.48 22.3398 14.86 20.7198 14.86 18.7698V15.9598C14.86 14.9898 15.62 14.1198 16.7 14.1198C17.67 14.1198 18.54 14.8798 18.54 15.9598V18.9898" stroke="#242424" stroke-linecap="round" stroke-linejoin="round"/>
</svg>
