<svg width="40" height="40" viewBox="0 0 40 40" fill="none" xmlns="http://www.w3.org/2000/svg">
<path d="M30 15C28.7936 15.0144 27.6331 15.4646 26.7326 16.2675C25.8321 17.0703 25.2522 18.1717 25.0999 19.3686C24.9476 20.5654 25.2333 21.7769 25.9041 22.7797C26.5749 23.7825 27.5857 24.5089 28.75 24.825V27.5C28.75 29.4891 27.9598 31.3968 26.5533 32.8033C25.1468 34.2098 23.2391 35 21.25 35C19.2609 35 17.3532 34.2098 15.9467 32.8033C14.5402 31.3968 13.75 29.4891 13.75 27.5V23.75H15L16.25 22.5V20.5125C18.0954 19.766 19.676 18.4857 20.7894 16.8356C21.9028 15.1855 22.4985 13.2406 22.5 11.25C22.5 11.25 22.5 7.49988 22.5 4.99997C22.5 4.30962 21.9404 3.74992 21.25 3.74997C20.5827 3.75002 19.5591 3.75002 18.7498 3.75C18.0595 3.74999 17.5 4.30963 17.5 4.99999C17.5 5.69034 18.0596 6.24997 18.75 6.24997H20V11.25C20 13.2391 19.2098 15.1468 17.8033 16.5533C16.3968 17.9598 14.4891 18.75 12.5 18.75C12.1403 18.7516 11.781 18.7266 11.425 18.675C9.64033 18.4165 8.00853 17.5237 6.82855 16.16C5.64857 14.7964 4.99941 13.0533 5 11.25V6.24997H6.24994C6.94033 6.24997 7.5 5.6903 7.5 4.99991C7.5 4.30957 6.94098 3.74992 6.25063 3.7499C5.48624 3.74987 4.51212 3.74986 3.75 3.74997C3.05964 3.75007 2.5 4.30962 2.5 4.99997C2.5 7.49988 2.5 11.25 2.5 11.25C2.5115 13.2383 3.11109 15.1788 4.22327 16.8271C5.33545 18.4753 6.91048 19.7576 8.75 20.5125V22.5L10 23.75H11.25V27.5C11.25 30.1521 12.3036 32.6957 14.1789 34.571C16.0543 36.4464 18.5978 37.5 21.25 37.5C23.9022 37.5 26.4457 36.4464 28.3211 34.571C30.1964 32.6957 31.25 30.1521 31.25 27.5V24.825C32.4143 24.5089 33.4251 23.7825 34.0959 22.7797C34.7667 21.7769 35.0524 20.5654 34.9001 19.3686C34.7478 18.1717 34.1679 17.0703 33.2674 16.2675C32.3669 15.4646 31.2064 15.0144 30 15ZM30 22.5C29.5055 22.5 29.0222 22.3533 28.6111 22.0786C28.1999 21.8039 27.8795 21.4135 27.6903 20.9567C27.5011 20.4999 27.4516 19.9972 27.548 19.5122C27.6445 19.0273 27.8826 18.5818 28.2322 18.2322C28.5819 17.8826 29.0273 17.6445 29.5123 17.548C29.9972 17.4515 30.4999 17.5011 30.9567 17.6903C31.4135 17.8795 31.804 18.1999 32.0787 18.611C32.3534 19.0222 32.5 19.5055 32.5 20C32.5 20.663 32.2366 21.2989 31.7678 21.7677C31.2989 22.2366 30.663 22.5 30 22.5Z" fill="#2690E0"/>
</svg>
