<svg width="22" height="23" viewBox="0 0 22 23" fill="none" xmlns="http://www.w3.org/2000/svg">
<path d="M11.439 0.937988C9.34997 0.937791 7.30782 1.55707 5.57078 2.71752C3.83373 3.87797 2.47982 5.52746 1.68025 7.45739C0.880687 9.38733 0.671381 11.511 1.07881 13.5599C1.48623 15.6088 2.49208 17.4909 3.96917 18.9681C5.44625 20.4453 7.32821 21.4514 9.37707 21.859C11.4259 22.2666 13.5496 22.0575 15.4797 21.2581C17.4097 20.4587 19.0593 19.105 20.2199 17.368C21.3805 15.6311 22 13.589 22 11.5C22 8.69895 20.8873 6.01261 18.9068 4.03188C16.9263 2.05115 14.24 0.938254 11.439 0.937988ZM11.439 20.301C9.69851 20.301 7.99712 19.7849 6.54996 18.8179C5.10281 17.851 3.97489 16.4766 3.30884 14.8686C2.64279 13.2606 2.46852 11.4912 2.80807 9.78419C3.14762 8.07716 3.98574 6.50915 5.21644 5.27845C6.44714 4.04775 8.01515 3.20963 9.72219 2.87008C11.4292 2.53053 13.1986 2.7048 14.8066 3.37085C16.4146 4.0369 17.789 5.16482 18.7559 6.61197C19.7229 8.05912 20.239 9.76051 20.239 11.501C20.239 13.8349 19.3118 16.0732 17.6615 17.7235C16.0112 19.3738 13.7729 20.301 11.439 20.301Z" fill="#124681"/>
<path d="M11.4376 5.33936C11.2042 5.33936 10.9804 5.43207 10.8154 5.5971C10.6503 5.76213 10.5576 5.98597 10.5576 6.21936V13.2604C10.5576 13.4937 10.6503 13.7176 10.8154 13.8826C10.9804 14.0476 11.2042 14.1404 11.4376 14.1404C11.671 14.1404 11.8948 14.0476 12.0599 13.8826C12.2249 13.7176 12.3176 13.4937 12.3176 13.2604V6.21936C12.3176 5.98597 12.2249 5.76213 12.0599 5.5971C11.8948 5.43207 11.671 5.33936 11.4376 5.33936Z" fill="#124681"/>
<path d="M12.4385 16.895C12.4385 16.3427 11.9908 15.895 11.4385 15.895C10.8862 15.895 10.4385 16.3427 10.4385 16.895C10.4385 17.4473 10.8862 17.895 11.4385 17.895C11.9908 17.895 12.4385 17.4473 12.4385 16.895Z" fill="#124681"/>
</svg>
