<svg width="20" height="20" viewBox="0 0 20 20" fill="none" xmlns="http://www.w3.org/2000/svg">
<g clip-path="url(#clip0_258_4345)">
<path d="M11.7079 4.99984C12.5218 5.15864 13.2699 5.55672 13.8563 6.14312C14.4427 6.72952 14.8407 7.47756 14.9996 8.2915M11.7079 1.6665C13.399 1.85437 14.9759 2.61165 16.1798 3.81401C17.3836 5.01637 18.1429 6.59235 18.3329 8.28317M8.52204 11.5524C7.52072 10.5511 6.73007 9.41888 6.15007 8.21086C6.10018 8.10695 6.07523 8.055 6.05607 7.98926C5.98797 7.75563 6.03689 7.46875 6.17856 7.27089C6.21843 7.21521 6.26606 7.16758 6.36132 7.07232C6.65266 6.78098 6.79833 6.63531 6.89356 6.48883C7.25273 5.93642 7.25273 5.22427 6.89356 4.67186C6.79833 4.52538 6.65266 4.37971 6.36132 4.08837L6.19893 3.92598C5.75606 3.48311 5.53462 3.26168 5.29681 3.14139C4.82384 2.90217 4.26529 2.90217 3.79232 3.14139C3.5545 3.26168 3.33307 3.48311 2.8902 3.92598L2.75883 4.05735C2.31748 4.4987 2.09681 4.71937 1.92827 5.0194C1.74125 5.35232 1.60678 5.8694 1.60792 6.25125C1.60894 6.59537 1.67569 6.83056 1.8092 7.30093C2.52668 9.82876 3.8804 12.2141 5.87039 14.204C7.86037 16.194 10.2457 17.5478 12.7735 18.2652C13.2439 18.3987 13.4791 18.4655 13.8232 18.4665C14.205 18.4677 14.7221 18.3332 15.055 18.1462C15.3551 17.9776 15.5757 17.757 16.0171 17.3156L16.1484 17.1842C16.5913 16.7414 16.8128 16.5199 16.933 16.2821C17.1723 15.8091 17.1723 15.2506 16.933 14.7776C16.8128 14.5398 16.5913 14.3184 16.1484 13.8755L15.9861 13.7131C15.6947 13.4218 15.549 13.2761 15.4026 13.1809C14.8502 12.8217 14.138 12.8217 13.5856 13.1809C13.4391 13.2761 13.2934 13.4218 13.0021 13.7131C12.9069 13.8084 12.8592 13.856 12.8035 13.8959C12.6057 14.0375 12.3188 14.0865 12.0852 14.0184C12.0194 13.9992 11.9675 13.9743 11.8636 13.9244C10.6556 13.3444 9.52335 12.5537 8.52204 11.5524Z" stroke="black" stroke-width="1.5" stroke-linecap="round" stroke-linejoin="round"/>
</g>
<defs>
<clipPath id="clip0_258_4345">
<rect width="20" height="20" fill="white"/>
</clipPath>
</defs>
</svg>
