<svg width="64" height="64" viewBox="0 0 64 64" fill="none" xmlns="http://www.w3.org/2000/svg">
<path d="M32.0002 5.33301C17.3068 5.33301 5.3335 17.3063 5.3335 31.9997C5.3335 46.693 17.3068 58.6663 32.0002 58.6663C46.6935 58.6663 58.6668 46.693 58.6668 31.9997C58.6668 17.3063 46.6935 5.33301 32.0002 5.33301ZM44.7468 25.8663L29.6268 40.9863C29.2535 41.3597 28.7468 41.573 28.2135 41.573C27.6802 41.573 27.1735 41.3597 26.8002 40.9863L19.2535 33.4397C18.4802 32.6663 18.4802 31.3863 19.2535 30.613C20.0268 29.8397 21.3068 29.8397 22.0802 30.613L28.2135 36.7463L41.9202 23.0397C42.6935 22.2663 43.9735 22.2663 44.7468 23.0397C45.5202 23.813 45.5202 25.0663 44.7468 25.8663Z" fill="#237D24"/>
</svg>
