<svg width="40" height="40" viewBox="0 0 40 40" fill="none" xmlns="http://www.w3.org/2000/svg">
<rect width="40" height="40" rx="20" fill="#E9F4FC"/>
<path d="M10.5549 15.7664C11.1101 10.7145 15.5542 10.2275 18.5811 11.9814C19.5324 12.5327 20.4678 12.5327 21.4192 11.9814C24.446 10.2275 28.8901 10.7145 29.4453 15.7664C30.0023 20.8346 27.1482 26.1964 25.6201 28.2497C25.2724 28.7169 24.7111 28.9401 24.1287 28.9401C23.1743 28.9401 22.3224 28.3415 21.9987 27.4437L21.4589 25.9464C21.2372 25.3315 20.6538 24.9216 20.0001 24.9216C19.3465 24.9216 18.763 25.3315 18.5413 25.9464L18.0015 27.4437C17.6779 28.3415 16.8259 28.9401 15.8715 28.9401C15.2892 28.9401 14.7278 28.7169 14.3802 28.2497C12.8521 26.1964 9.99797 20.8346 10.5549 15.7664Z" stroke="#1E73B3" stroke-width="1.5" stroke-linecap="round" stroke-linejoin="round"/>
<path d="M22.2134 16.0195C20.3957 16.6824 19.4192 16.6689 17.7869 16.0195" stroke="#1E73B3" stroke-width="1.5" stroke-linecap="round" stroke-linejoin="round"/>
</svg>
