<svg width="22" height="22" viewBox="0 0 22 22" fill="none" xmlns="http://www.w3.org/2000/svg">
<path d="M0 20L1.41254 14.8642C0.540902 13.3608 0.0828937 11.6567 0.0837311 9.90917C0.086243 4.44583 4.55329 0 10.0419 0C12.7053 0.000833333 15.2056 1.03333 17.0862 2.90667C18.9659 4.78 20.0008 7.27 20 9.91833C19.9975 15.3825 15.5304 19.8283 10.0419 19.8283C8.37562 19.8275 6.73365 19.4117 5.27924 18.6217L0 20ZM5.52374 16.8275C6.92707 17.6567 8.26677 18.1533 10.0385 18.1542C14.6002 18.1542 18.3162 14.4592 18.3187 9.91667C18.3204 5.365 14.622 1.675 10.0452 1.67333C5.4802 1.67333 1.76673 5.36833 1.76505 9.91C1.76421 11.7642 2.31014 13.1525 3.22699 14.605L2.39052 17.645L5.52374 16.8275ZM15.0582 12.2742C14.9962 12.1708 14.8304 12.1092 14.5809 11.985C14.3322 11.8608 13.1089 11.2617 12.8803 11.1792C12.6526 11.0967 12.4868 11.055 12.3202 11.3033C12.1544 11.5508 11.6771 12.1092 11.5323 12.2742C11.3874 12.4392 11.2417 12.46 10.993 12.3358C10.7444 12.2117 9.94222 11.9508 8.99188 11.1067C8.25253 10.45 7.75266 9.63917 7.6078 9.39083C7.46295 9.14333 7.59273 9.00917 7.71665 8.88583C7.82885 8.775 7.96533 8.59667 8.09009 8.45167C8.21653 8.30833 8.25756 8.205 8.34129 8.03917C8.42418 7.87417 8.38315 7.72917 8.32035 7.605C8.25756 7.48167 7.76019 6.2625 7.55338 5.76667C7.35075 5.28417 7.14561 5.34917 6.99322 5.34167L6.51595 5.33333C6.35016 5.33333 6.08055 5.395 5.8528 5.64333C5.62505 5.89167 4.982 6.49 4.982 7.70917C4.982 8.92833 5.87373 10.1058 5.99765 10.2708C6.12241 10.4358 7.75182 12.9375 10.2478 14.01C10.8415 14.265 11.3054 14.4175 11.6662 14.5317C12.2624 14.72 12.805 14.6933 13.2337 14.63C13.7118 14.5592 14.7057 14.0308 14.9133 13.4525C15.121 12.8733 15.121 12.3775 15.0582 12.2742Z" fill="white"/>
</svg>
