<svg width="59" height="54" viewBox="0 0 59 54" fill="none" xmlns="http://www.w3.org/2000/svg">
<path d="M28.6527 7.91553C28.6527 8.07997 28.8192 7.92536 28.7896 8.12844C28.7599 8.33152 28.6376 8.29 28.7491 8.54455C28.8606 8.79898 28.9101 8.87931 28.9712 9.08239C29.0324 9.28547 29.062 9.3883 29.2437 9.37744C29.4253 9.36671 29.5261 9.14373 29.607 9.31614C29.688 9.48856 29.688 9.42801 29.5971 9.69152C29.5063 9.95511 29.4343 10.0571 29.4451 10.2701C29.4559 10.483 29.4244 10.5543 29.4954 10.8486C29.5666 11.1427 29.607 11.132 29.6573 11.3251C29.6773 11.4014 29.7271 11.4861 29.7854 11.5722C29.7225 11.6614 29.8318 11.8152 29.8318 12.1473C29.8318 12.5497 29.8121 12.3494 29.5918 12.4703C29.3713 12.5912 29.3713 12.5714 29.0503 12.4496C28.7292 12.3277 28.2689 12.7122 27.848 12.6517C27.4271 12.5912 26.9064 12.6517 26.5853 12.4703C26.2643 12.2889 25.864 12.0867 25.4234 11.7844C25.0002 11.4942 24.54 11.4645 24.2382 11.302C24.1772 11.048 24.0996 10.7132 24.0996 10.6455C24.0996 10.5336 24.0788 10.2799 24.0285 10.1482C23.9782 10.0165 23.9269 9.71141 23.9476 9.52917C23.9682 9.34677 24.0492 9.29633 24.2003 9.26554C24.3513 9.23491 24.4629 9.23491 24.4827 9.0625C24.5024 8.89016 24.4017 8.88929 24.4017 8.61583C24.4017 8.34237 24.092 8.07574 24.092 7.91553" stroke="#2F428D" stroke-width="0.75" stroke-miterlimit="22.9256"/>
<path fill-rule="evenodd" clip-rule="evenodd" d="M39.4548 27.8752C39.4548 27.6186 39.2345 27.737 38.9199 27.737C38.6013 27.737 38.1883 27.5989 38.1883 27.5989C38.1883 27.5989 38.1843 27.591 38.1725 27.5791C38.1725 27.6502 38.1253 27.6739 37.7871 27.5712C37.3269 27.4291 37.1656 27.4528 36.8273 27.3502C36.4851 27.2476 36.5441 27.2515 36.1036 27.2278C35.6631 27.2081 35.2422 27.1686 34.8214 27.0897C34.4005 27.0068 34.4005 26.9871 34.1016 26.8055C33.7987 26.6239 33.8184 26.6239 33.7397 26.241C33.661 25.8582 33.661 25.6963 33.3582 25.495C33.0592 25.2937 32.957 25.1319 32.6384 25.2148C32.3158 25.2937 32.0956 25.4161 31.714 25.5977C31.3325 25.7792 31.3325 25.9805 30.7543 25.9174C30.1722 25.8582 29.9322 25.9608 29.712 25.7398C29.4917 25.5148 29.6923 25.3964 29.1888 25.3529C28.6893 25.3135 28.6893 25.2345 28.469 25.0924C28.2488 24.9503 28.2094 24.8319 27.9695 24.7293C27.7256 24.6306 27.647 24.6898 27.4857 24.4885C27.3284 24.2872 27.1278 24.0662 26.9075 23.8017C26.6872 23.5412 26.644 23.4386 26.4434 23.0557C26.2428 22.6728 26.1248 22.6136 25.9832 22.2505C25.8455 21.8873 25.9635 21.6821 25.6252 21.6426C25.283 21.6031 25.283 21.6268 25.0038 21.4847C24.7206 21.3426 24.7402 21.161 24.461 21.2794C24.1817 21.4018 24.2014 21.5636 23.9221 21.686C23.7962 21.7373 23.7254 21.8478 23.6743 21.9268C23.6428 22.0886 23.6074 22.1636 23.4068 22.2583C23.1905 22.357 23.2298 22.3965 23.0528 22.5939C22.8719 22.7912 23.1118 22.8544 23.1905 23.0912C23.2692 23.328 23.3872 23.3675 23.6074 23.7267C23.8238 24.0819 23.8238 23.9833 24.0401 24.2438C24.2604 24.5003 24.28 24.4411 24.5947 24.599C24.9133 24.7569 24.9723 24.7964 25.2673 24.9582C25.5623 25.1161 25.5426 25.195 25.8022 25.5937C26.0579 25.9884 25.9792 26.1897 25.9792 26.3279C25.9792 26.466 25.9792 26.7029 26.0186 26.9831C26.0579 27.2594 26.1956 27.141 26.3962 27.2989C26.5928 27.4607 26.6125 27.3186 26.7895 27.2002C26.9704 27.0818 27.0884 27.1805 27.2851 27.3186C27.4818 27.4607 27.584 27.5791 27.6037 27.8949C27.6234 28.2146 27.6234 28.1357 27.584 28.2936C27.5447 28.4515 27.5644 28.5304 27.5644 28.5304L30.2154 28.6094C30.2154 28.6094 30.3531 28.5304 30.4514 28.3133C30.5498 28.0923 30.6874 28.1554 30.888 27.9739C31.0847 27.7962 30.9864 27.7568 31.2027 27.6186C31.419 27.4805 31.5606 27.5199 31.8163 27.3778C32.072 27.2397 31.9933 26.9831 32.1546 26.7029C32.3119 26.4266 32.2136 26.3871 32.5282 26.2489C32.8468 26.1068 32.8075 26.2489 32.9058 26.4463C33.0042 26.6437 32.9058 26.6042 32.8468 26.9831C32.7839 27.3581 32.7446 27.4607 32.7249 27.7568C32.7052 28.0528 32.7839 27.8752 33.0435 28.1357C33.2992 28.3923 33.2402 28.3528 33.5391 28.5896C33.8341 28.8304 33.9128 28.5896 34.9433 28.5896H37.6337C38.0703 28.5896 38.326 28.5304 38.7626 28.5304C39.1952 28.5304 39.1952 28.4909 39.3526 28.412C39.5138 28.3331 39.4548 28.1357 39.4548 27.8752Z" stroke="#2F428D" stroke-width="0.75" stroke-miterlimit="22.9256"/>
<path fill-rule="evenodd" clip-rule="evenodd" d="M39.8326 24.9503C39.813 25.1122 39.7304 25.1319 39.4314 25.2345C39.1325 25.3332 38.9712 25.3964 38.81 25.6371C38.6487 25.8779 38.4284 25.9608 38.3891 26.2411C38.3498 26.5253 38.2475 26.6634 38.2475 26.9476C38.2475 27.2279 38.1688 27.37 38.1688 27.4923C38.1688 27.5239 38.1728 27.5555 38.1728 27.5792C38.1728 27.6502 38.1256 27.6739 37.7873 27.5713C37.3271 27.4292 37.1658 27.4528 36.8276 27.3502C36.4854 27.2476 36.5444 27.2515 36.1038 27.2279C35.6633 27.2081 35.2424 27.1686 34.8216 27.0897C34.4007 27.0068 34.4007 26.9871 34.1018 26.8055C33.7989 26.6239 33.8186 26.6239 33.7399 26.2411C33.6613 25.8582 33.6613 25.6963 33.3584 25.495C33.0595 25.2937 32.9572 25.1319 32.6386 25.2148C32.3161 25.2937 32.0958 25.4161 31.7143 25.5977C31.3327 25.7792 31.3327 25.9805 30.7545 25.9174C30.1724 25.8582 29.9325 25.9608 29.7122 25.7398C29.4919 25.5148 29.6925 25.3964 29.1891 25.3529C28.6895 25.3135 28.6895 25.2345 28.4693 25.0924C28.249 24.9503 28.2097 24.8319 27.9697 24.7293C27.7259 24.6306 27.6472 24.6898 27.4859 24.4885C27.3286 24.2872 27.128 24.0662 26.9077 23.8017C26.6875 23.5412 26.6442 23.4386 26.4436 23.0557C26.243 22.6728 26.125 22.6136 25.9834 22.2505C25.8457 21.8873 25.9637 21.6821 25.6255 21.6426C25.2833 21.6031 25.2833 21.6268 25.004 21.4847C24.7208 21.3426 24.7405 21.161 24.4612 21.2795C24.1819 21.4018 24.2016 21.5637 23.9223 21.686C23.7965 21.7373 23.7257 21.8479 23.6745 21.9268C23.6116 22.0294 23.5841 22.0768 23.5408 21.8873C23.4582 21.5439 23.4189 21.6229 23.2576 21.2005C23.1003 20.7782 23.1593 20.9597 23.0806 20.5137C22.998 20.0716 22.8997 20.3558 22.8367 19.89C22.7777 19.4282 22.7384 19.2268 22.7187 18.9427C22.6991 18.6624 22.7974 18.6822 22.5181 18.5203C22.2389 18.3585 22.0186 18.3269 21.7354 18.173C21.4561 18.0151 21.3342 17.9559 21.2359 17.7546C21.1336 17.5533 21.0943 17.5533 21.0746 17.352C21.0549 17.1467 21.1336 17.2691 20.9527 16.9454C20.7757 16.6257 20.7324 16.8665 20.5751 16.4007C20.4138 15.9389 20.3745 15.9784 20.3745 15.635C20.3745 15.2916 20.3115 15.1731 20.4335 15.0113C20.5554 14.8495 20.5751 14.9916 20.6341 14.7074C20.6931 14.4271 20.7127 14.4271 20.6931 14.1232C20.6734 13.8232 20.7953 13.8429 20.5318 13.6219C20.2722 13.3969 20.4217 13.4798 20.1188 13.239C19.8199 12.9982 19.7884 12.9864 19.7215 12.6509C19.6507 12.3154 19.5799 12.4299 19.5209 12.0272C19.458 11.6246 19.3911 11.522 19.3125 11.222C19.2299 10.9181 19.1709 10.8155 19.0489 10.3339C18.9309 9.8484 18.8365 9.75367 18.7893 9.46553C18.7421 9.18133 18.7343 9.12212 18.7933 8.89713C18.8483 8.6682 18.8798 8.48663 18.8798 8.34453C18.9231 8.25374 19.0725 8.13927 19.2023 8.13138C19.3361 8.12349 19.6193 8.01296 19.7255 8.09585C19.7727 8.13138 19.7569 8.26164 19.812 8.33663C20.0677 8.69188 19.9969 9.08265 20.2919 9.34711C20.5908 9.60762 20.8543 9.58789 21.0943 9.46553C21.3342 9.34316 21.6371 9.20501 21.8377 9.12212C22.0383 9.04318 22.1759 8.75898 22.3962 8.55767C22.6165 8.35637 22.88 8.0327 23.0177 8.27743C23.1593 8.5182 23.1986 8.53794 23.1199 8.82214C23.0373 9.10238 22.8996 9.32343 23.1003 9.505C23.3009 9.68657 23.5998 9.7063 23.6588 9.95103C23.7217 10.1918 23.6391 10.1721 23.7807 10.5352C23.9223 10.8944 23.9027 11.0997 24.2016 11.2812C24.5005 11.4628 24.9843 11.4825 25.4249 11.7825C25.8654 12.0864 26.2627 12.2878 26.5852 12.4693C26.9077 12.6509 27.4269 12.5917 27.8478 12.6509C28.2687 12.7141 28.7289 12.3272 29.0514 12.4496C29.37 12.572 29.37 12.5917 29.5903 12.4693C29.8105 12.3509 29.8302 12.5483 29.8302 12.1457C29.8302 11.743 29.6729 11.6049 29.8499 11.522C30.0308 11.4431 30.0701 11.4431 30.3337 11.2418C30.5933 11.0404 30.8529 10.776 31.0731 10.5747C31.2934 10.3734 31.2344 10.3339 31.6749 10.3339C32.1155 10.3339 31.9385 10.4957 32.4773 10.3536C33.0162 10.2115 33.1381 10.1523 33.3387 10.2313C33.5393 10.3142 33.9012 10.5352 33.9995 10.7168C34.1018 10.8983 33.9405 11.1391 34.2198 11.1589C34.4991 11.1825 34.5227 11.1825 34.9239 11.1825C35.3211 11.1825 35.8443 11.0997 36.0055 11.3839C36.1629 11.6641 36.3831 11.8457 36.5641 11.9483C36.745 12.047 36.9063 12.2285 37.2052 12.3312C37.5081 12.4299 37.626 12.4101 37.626 12.6943C37.626 12.9746 37.6064 13.0969 37.6064 13.5193C37.6064 13.9416 37.6496 14.1035 37.5277 14.4666C37.4058 14.8297 37.4294 14.7074 37.1658 15.1731C36.9062 15.635 36.627 15.7376 36.8079 16.0613C36.9849 16.381 37.1265 16.7046 37.1265 17.127C37.1265 17.5533 37.2484 18.2164 37.2484 18.5401C37.2484 18.8598 37.1855 18.9624 37.4884 19.144C37.7873 19.3256 37.9092 19.369 38.0705 19.59C38.2278 19.8111 38.4088 19.7716 38.3891 20.0518C38.3694 20.3321 38.5504 20.415 38.2908 20.5768C38.0272 20.7387 37.9683 20.5571 37.8502 20.7781C37.7283 20.9992 37.5277 20.94 37.5867 21.2202C37.6496 21.5044 37.6064 21.7649 37.7676 22.0886C37.9289 22.4123 37.9289 22.6728 38.1492 22.8938C38.3694 23.1149 38.4481 23.1583 38.6684 23.3201C38.8886 23.478 39.0696 23.178 39.1522 23.3793C39.2308 23.5806 39.1915 23.6793 39.2112 24.003C39.2308 24.3266 39.2308 24.5477 39.4511 24.6898C39.6714 24.828 39.8523 24.7885 39.8326 24.9503Z" stroke="#2F428D" stroke-width="0.75" stroke-miterlimit="22.9256"/>
<path fill-rule="evenodd" clip-rule="evenodd" d="M30.4786 15.3257C30.8571 15.3573 31.2141 15.4629 31.537 15.6298L31.8734 15.3122C32.1468 15.4566 32.4318 15.6975 32.6449 15.9115L32.4031 16.3203C32.6675 16.6325 32.8653 17.0016 32.9777 17.4086L33.4418 17.4439C33.5236 17.7389 33.5362 18.1098 33.5254 18.4167L33.0596 18.5151C33.0119 18.9068 32.886 19.274 32.6971 19.6007L32.9975 19.9591C32.8446 20.2244 32.5892 20.4934 32.3635 20.7001L31.966 20.4337C31.6935 20.6441 31.3841 20.8056 31.0459 20.9067L31.0262 21.3751C30.7222 21.449 30.3499 21.4816 30.0504 21.4681L29.938 21.0087C29.5567 20.968 29.197 20.8517 28.8759 20.6757L28.5306 20.9897C28.2644 20.8309 27.9792 20.5854 27.7742 20.3652L28.0234 19.9591C27.7841 19.6613 27.6034 19.3146 27.4981 18.9357L27.035 18.904C26.9613 18.6035 26.9379 18.2272 26.9514 17.9285L27.4154 17.8257C27.4541 17.5125 27.5404 17.2146 27.6709 16.9403L27.3435 16.6109C27.4847 16.3356 27.714 16.0387 27.9191 15.8202L28.3336 16.0495C28.6313 15.7805 28.9865 15.5721 29.3786 15.4476L29.3948 14.9846C29.6907 14.8953 30.0621 14.8636 30.3643 14.8645L30.4786 15.3257ZM29.9586 19.2931V19.7163C29.6178 19.6369 29.2761 19.4176 28.9343 19.0873C28.7104 18.8969 28.6538 19.0241 28.7644 19.4664C28.9155 20.0538 29.3733 20.5863 30.2375 20.5845C31.1017 20.5863 31.5595 20.0538 31.7106 19.4664C31.8212 19.0241 31.7646 18.8969 31.5406 19.0873C31.1908 19.4248 30.8427 19.6477 30.4938 19.7217V19.3021C31.0316 19.1315 31.3877 18.8274 31.4857 18.4853C31.6089 18.053 31.4317 17.8761 31.2123 18.1713C31.0136 18.442 30.733 18.618 30.4074 18.6613V18.1127C30.7069 17.9935 30.9236 17.8364 31.0594 17.6424C31.1718 17.4339 31.0307 17.2985 30.8427 17.4015C30.7033 17.5043 30.5496 17.5756 30.376 17.6108V17.1379C30.5837 17.0766 30.7429 16.9998 30.8139 16.8175C30.8805 16.6262 30.7869 16.5703 30.5927 16.6606C30.4821 16.7056 30.3616 16.7913 30.2375 16.8022C30.1134 16.7913 29.9929 16.7056 29.8823 16.6606C29.688 16.5703 29.5945 16.6262 29.661 16.8175C29.7321 16.9989 29.894 17.0756 30.1008 17.137V17.6099C29.9281 17.5747 29.7708 17.5034 29.6322 17.4015C29.4443 17.2985 29.303 17.4339 29.4155 17.6424C29.5531 17.8392 29.777 17.9989 30.0846 18.1189V18.6631C29.7527 18.6225 29.464 18.4456 29.2626 18.1713C29.0432 17.8761 28.866 18.053 28.9892 18.4853C29.0854 18.8219 29.4344 19.1206 29.9586 19.2931Z" fill="#2F428D"/>
<path fill-rule="evenodd" clip-rule="evenodd" d="M30.2385 13.7175C32.6882 13.7175 34.6756 15.712 34.6756 18.1722C34.6756 18.4085 34.6559 18.6378 34.6199 18.8644C34.5534 20.2091 34.8672 20.4121 36.1299 21.1233L35.4878 22.393C34.7836 21.9959 34.1873 21.5032 33.8303 20.8029L33.8312 20.7767C33.7179 20.5069 33.6271 20.2082 33.5866 19.8517L33.289 19.432C33.3879 19.1938 33.4616 18.9419 33.5021 18.6785L33.7763 18.6143C33.8168 18.1848 33.7746 17.6315 33.6693 17.1893L33.3897 17.1749C33.2656 16.7787 33.0694 16.415 32.8168 16.0982L32.9553 15.8509C32.6549 15.5333 32.226 15.1885 31.8329 14.9648L31.6324 15.1632C31.3249 15.0189 30.9894 14.9204 30.6386 14.8771L30.5658 14.6037C30.1296 14.5857 29.582 14.6398 29.1467 14.7608L29.1412 15.0405C28.786 15.1659 28.4605 15.3492 28.1727 15.5821L27.4659 14.6931C28.2248 14.0812 29.1871 13.7175 30.2385 13.7175ZM32.8429 21.7659L32.1432 20.8679C31.8788 21.0583 31.5892 21.2135 31.2745 21.3182L31.2637 21.6016C30.8275 21.7107 30.2736 21.7622 29.8463 21.7297L29.7771 21.4536C29.4066 21.4013 29.054 21.2848 28.732 21.1196L28.5216 21.3109C28.1377 21.0754 27.7141 20.7163 27.4361 20.3869L27.5836 20.1432C27.358 19.8382 27.1826 19.4906 27.072 19.1179L26.7895 19.0981C26.6942 18.6576 26.6601 18.1035 26.7015 17.674L26.9811 17.6126C27.0233 17.3635 27.0963 17.1216 27.1906 16.8943L26.8939 16.4755C26.8534 16.1199 26.7626 15.8202 26.6502 15.5514L26.6475 15.555L26.6493 15.5504C26.2932 14.8456 25.6942 14.3501 24.9873 13.9513L24.3452 15.221C25.6078 15.9312 25.9217 16.1316 25.8552 17.4736C25.8192 17.7011 25.7993 17.9357 25.7993 18.1722C25.7993 20.6306 27.7869 22.625 30.2385 22.625C31.2142 22.625 32.1117 22.3037 32.8429 21.7659Z" fill="#2F428D"/>
<path fill-rule="evenodd" clip-rule="evenodd" d="M33.0985 10.2017L33.9929 1.21536C34.6233 1.36341 35.2403 1.54566 35.8419 1.7605L34.3799 11.171C34.3351 11.1682 34.2851 11.1646 34.2204 11.1599C33.9398 11.1391 34.1008 10.8982 34.0001 10.7167C33.8993 10.5353 33.5396 10.3133 33.339 10.233C33.2573 10.2003 33.1876 10.1918 33.0985 10.2017ZM36.0047 11.3819C36.1532 11.6442 36.352 11.8168 36.5245 11.9208L38.7286 3.1025C38.1738 2.77938 37.601 2.48524 37.0091 2.22441L35.2889 11.1716C35.5947 11.1646 35.891 11.1813 36.0047 11.3819ZM29.6371 9.57753C29.6265 9.6076 29.6138 9.64273 29.597 9.69148C29.5061 9.95507 29.4342 10.057 29.445 10.2701C29.4558 10.483 29.4243 10.5543 29.4953 10.8485C29.5664 11.1427 29.6069 11.1319 29.6572 11.3251C29.6661 11.359 29.6826 11.3952 29.7014 11.4319L29.6371 9.57753ZM31.0746 10.5751C31.2949 10.3738 31.2338 10.3332 31.6753 10.3332C31.9454 10.3332 31.9837 10.3934 32.0958 10.4082L32.6708 0.958118C32.0413 0.861571 31.401 0.801139 30.7518 0.774101L30.693 10.9309C30.8274 10.8072 30.9569 10.6825 31.0746 10.5751ZM39.4508 24.689C39.6711 24.8298 39.8529 24.7892 39.8321 24.9507C39.8115 25.1123 39.7314 25.1321 39.4311 25.2332C39.1307 25.3343 38.9697 25.3948 38.8096 25.6366C38.6496 25.8785 38.4283 25.9588 38.3887 26.2413C38.3492 26.5238 38.2484 26.6645 38.2484 26.9471C38.2484 26.9608 38.2464 26.9704 38.246 26.9835L47.3118 16.5639C47.2524 15.9115 47.1571 15.2707 47.0276 14.6417L39.3175 24.555C39.3496 24.6055 39.3911 24.6509 39.4508 24.689ZM37.6271 12.6923C37.6271 12.9747 37.6072 13.0957 37.6072 13.5189C37.6072 13.9422 37.6477 14.1038 37.5271 14.4665C37.4066 14.8294 37.4273 14.7085 37.1666 15.1723C36.9058 15.6362 36.626 15.7363 36.8059 16.0595C36.9796 16.3714 37.1134 16.6845 37.1227 17.0865L41.3664 4.98779C40.8807 4.56631 40.3699 4.17282 39.8393 3.80739L37.3534 12.3752C37.5456 12.4328 37.6271 12.462 37.6271 12.6923ZM38.6693 23.3182C38.8896 23.4788 39.0704 23.1774 39.1504 23.3785C39.2037 23.5123 39.2038 23.6059 39.2039 23.7454L46.693 13.2888C46.5114 12.6652 46.2955 12.056 46.0492 11.464L38.5584 23.2386C38.5926 23.2629 38.6267 23.2871 38.6693 23.3182ZM28.6526 7.91549C28.6526 8.07993 28.8191 7.92532 28.7895 8.1284C28.7598 8.33148 28.6375 8.28996 28.749 8.54451C28.8605 8.79895 28.91 8.87927 28.9711 9.08231C29.0323 9.28539 29.0619 9.38822 29.2435 9.37737C29.4252 9.36663 29.5259 9.14365 29.6069 9.31606C29.6156 9.33458 29.6229 9.3493 29.6297 9.36311L29.3316 0.773193C28.6815 0.799363 28.0412 0.860702 27.4117 0.956382L28.0377 7.91553L28.6526 7.91549ZM37.4876 19.1441C37.7754 19.3179 37.8986 19.3672 38.0492 19.5651L43.6615 7.39474C43.2631 6.88843 42.8359 6.40463 42.3863 5.94624L37.2558 18.8981C37.2792 18.9846 37.3395 19.0547 37.4876 19.1441ZM38.2889 20.5755C38.2803 20.5809 38.2736 20.583 38.2654 20.5876L37.6646 21.7745C37.6845 21.8745 37.7119 21.9771 37.7673 22.088C37.9054 22.3644 37.9329 22.5955 38.0747 22.7957L45.4079 10.0949C45.1085 9.52183 44.7775 8.96674 44.4188 8.43348L38.4155 20.2913C38.4419 20.4018 38.4555 20.4724 38.2889 20.5755ZM23.6735 21.9294C23.6111 22.0282 23.5836 22.0756 23.5392 21.8858C23.4592 21.5438 23.4187 21.6241 23.2586 21.2009C23.0985 20.7776 23.1588 20.9582 23.0787 20.515C22.9987 20.0719 22.898 20.3543 22.8377 19.8905C22.7775 19.4267 22.7388 19.2254 22.7182 18.9429C22.6974 18.6604 22.7981 18.6812 22.5176 18.5196C22.2369 18.3581 22.0166 18.3273 21.7361 18.1713C21.6548 18.1261 21.5898 18.0893 21.5321 18.0544L23.5964 22.1244C23.6368 22.0725 23.6558 22.0121 23.6735 21.9294ZM20.3727 15.6362C20.3727 15.2933 20.3124 15.1714 20.4329 15.0108C20.5535 14.8501 20.5732 14.991 20.6335 14.7085C20.6937 14.4259 20.7136 14.4259 20.6937 14.1236C20.674 13.8213 20.7945 13.8421 20.5336 13.62C20.2728 13.398 20.4203 13.4801 20.12 13.2383C19.8196 12.9964 19.7899 12.9856 19.7198 12.6499C19.6497 12.3141 19.5795 12.4306 19.5192 12.028C19.459 11.6256 19.3907 11.5227 19.3106 11.2203C19.2306 10.918 19.1713 10.817 19.0507 10.3332C18.9302 9.84945 18.8384 9.7529 18.7899 9.46681C18.7525 9.24632 18.7405 9.15999 18.7629 9.02851L17.4921 6.13847C17.0461 6.60593 16.6288 7.0987 16.2367 7.61404L20.377 15.7771C20.3744 15.7372 20.3727 15.6932 20.3727 15.6362ZM39.3546 28.4117C39.2295 28.4746 39.2 28.5121 38.9793 28.5253L34.7977 32.148L34.4317 32.1489L38.219 28.559C38.0387 28.5744 37.8599 28.5904 37.6333 28.5904H37.3886L34.0253 32.1498L33.75 32.1507L36.8478 28.5904H36.1789L33.4092 32.1516L33.1826 32.1525L35.7338 28.5904H35.1537L32.8876 32.1525L32.6717 32.1534L34.7254 28.5966C34.4965 28.6052 34.3211 28.6239 34.1865 28.6444L32.4101 32.1535L32.2437 32.1543L33.8389 28.6951C33.7287 28.7016 33.6482 28.6791 33.5378 28.5905C33.5023 28.5619 33.4724 28.5378 33.4459 28.5163L32.0044 32.1554H31.8372L33.1939 28.2874C33.1575 28.25 33.112 28.2029 33.0432 28.1339C32.9473 28.0377 32.8763 28.0023 32.8258 27.9801L31.6141 32.1562H31.4666L32.8977 26.4306C32.8085 26.2408 32.8367 26.1125 32.5288 26.2476C32.4587 26.2784 32.4114 26.304 32.3748 26.3287L31.2544 32.1562L31.1196 32.1571L31.8674 27.3436C31.8512 27.3558 31.8365 27.3686 31.8165 27.3794C31.6322 27.479 31.5087 27.488 31.3734 27.5356L30.9135 32.1571L30.7724 32.1581L31.0388 27.7792C31.0111 27.8294 30.987 27.8843 30.8865 27.975C30.7691 28.0811 30.673 28.1037 30.5932 28.1499L30.57 32.1581L30.4207 32.1589L30.2952 28.5436C30.2484 28.5906 30.2139 28.6104 30.2139 28.6104L29.8983 28.601L30.2183 32.159L30.0619 32.1599L29.5895 28.5917L29.179 28.5794L29.8551 32.1599H29.7184L28.9071 28.5713L28.4788 28.5585L29.5043 32.1608H29.3316L28.1337 28.5481L27.6748 28.5343L29.1032 32.1616H28.935L26.7629 27.2218C26.6117 27.335 26.5817 27.4494 26.3954 27.2999C26.3053 27.2276 26.2283 27.2126 26.1666 27.1918L28.6877 32.1625L28.4891 32.1634L24.0413 24.2425C24.0412 24.2424 24.0414 24.2426 24.0413 24.2425C23.8236 23.9845 23.8234 24.0835 23.6058 23.7261C23.3881 23.3687 23.2694 23.329 23.1902 23.0907C23.1111 22.8525 22.8737 22.7929 23.0517 22.5943C23.0667 22.5777 23.0782 22.5636 23.0904 22.549L15.3886 8.83329C15.0424 9.3774 14.7259 9.94153 14.4408 10.5245L28.2148 32.1634L27.9656 32.1643L13.7879 12.0416C13.5603 12.6453 13.3687 13.2654 13.2087 13.8998L27.65 32.1652H27.4539L12.9668 15.0108C12.8499 15.6452 12.7689 16.2914 12.7231 16.9476L27.0897 32.1661L26.7758 32.167L12.6826 18.4809C12.6943 19.1406 12.7428 19.7894 12.8256 20.4293L26.3343 32.1678L25.9665 32.1689L13.0719 21.8643C13.2105 22.5086 13.3867 23.1395 13.5945 23.7549L25.4098 32.1697L24.961 32.1715L14.0927 25.0536C14.3535 25.6619 14.6485 26.2512 14.9741 26.8216L24.2253 32.1733L23.6462 32.1742L15.6801 27.9542C16.5389 29.224 17.5614 30.3737 18.7161 31.3719L18.7422 31.3745L17.6378 32.2346V35.8292L30.5476 35.8301H42.8107V32.1164L41.5481 31.2004L41.5364 31.2049C42.6965 30.1725 43.7199 28.9839 44.5716 27.6761L36.8887 32.1435L36.3644 32.1444L45.2731 26.4993C45.5869 25.9235 45.8685 25.3288 46.1167 24.716L35.7088 32.1462L35.3059 32.1471L46.5833 23.4156C46.7776 22.7983 46.9395 22.1648 47.0646 21.5204L39.4614 28.1075C39.4673 28.2492 39.4603 28.3587 39.3546 28.4117ZM47.3829 18.0133L38.2957 27.6304C38.4395 27.6715 38.7014 27.7367 38.9193 27.7367C38.9837 27.7367 39.0427 27.7316 39.0979 27.7259L47.2947 19.9563C47.3541 19.3697 47.3846 18.775 47.3846 18.1713L47.3829 18.0133ZM25.8019 25.5924C25.5447 25.1953 25.5644 25.1159 25.2677 24.9571C25.1221 24.8791 25.0337 24.8299 24.9439 24.7812L26.0077 26.8785C25.9816 26.6464 25.98 26.448 25.98 26.327C25.98 26.1881 26.0591 25.9895 25.8019 25.5924ZM27.2857 27.3197C27.2411 27.2883 27.2014 27.2601 27.1632 27.2349L27.5816 28.2974C27.582 28.2955 27.5821 28.2944 27.5825 28.2926C27.6221 28.1338 27.6221 28.2133 27.6023 27.8955C27.5825 27.5779 27.4836 27.4587 27.2857 27.3197ZM23.0185 8.27642C23.1588 8.51834 23.1983 8.53812 23.1183 8.82065C23.0654 9.00724 22.9883 9.16706 22.9985 9.30663L23.03 9.41723C23.0462 9.44794 23.0669 9.4779 23.0985 9.50652C23.2991 9.68789 23.5995 9.70778 23.6598 9.94959C23.72 10.1915 23.6399 10.1726 23.7802 10.5344C23.9205 10.8963 23.9007 11.0994 24.2011 11.2809C24.2124 11.2877 24.2257 11.2929 24.2375 11.2994C24.1766 11.0457 24.0995 10.7129 24.0995 10.6454C24.0995 10.5335 24.0788 10.2799 24.0285 10.1482C23.9781 10.0164 23.9268 9.71137 23.9475 9.52913C23.9682 9.34673 24.0491 9.29633 24.2002 9.26554C24.3513 9.23491 24.4629 9.23491 24.4827 9.0625C24.485 9.04209 24.4854 9.02441 24.4847 9.00807L24.4623 8.90899C24.4394 8.85002 24.4078 8.78647 24.4032 8.64749L24.348 8.40308C24.2594 8.2094 24.092 8.03355 24.092 7.91553H24.2378L22.961 2.26771C22.3711 2.53209 21.8009 2.82995 21.2478 3.15666L22.7054 8.27666C22.828 8.18295 22.9416 8.14395 23.0185 8.27642ZM26.8519 7.91549L25.9683 1.24157C25.3387 1.39318 24.7227 1.57822 24.122 1.79662L25.2773 7.91549H26.8519ZM19.7251 8.09686C19.7711 8.13302 19.7566 8.2611 19.8115 8.33784C20.0678 8.69241 19.995 9.08413 20.2927 9.34587C20.5903 9.60756 20.8547 9.58688 21.0949 9.4659C21.2897 9.36773 21.5217 9.25757 21.7104 9.17602L19.986 3.97522C19.4608 4.34969 18.959 4.75408 18.4796 5.18361L19.6143 8.06505C19.6591 8.06627 19.698 8.07495 19.7251 8.09686ZM18.0696 35.4142H42.4375V32.5442H18.0696V35.4142Z" fill="#2F428D"/>
<path d="M34.2487 33.9898C34.2487 34.2242 34.1488 34.3992 33.9483 34.514C33.8688 34.5626 33.7789 34.5981 33.679 34.6208C33.5788 34.6431 33.4666 34.6543 33.3422 34.6543C33.3126 34.6543 33.1739 34.652 32.9258 34.6474C32.8463 34.6428 32.7779 34.6273 32.7203 34.6007C32.663 34.5741 32.6143 34.5341 32.5732 34.4809C32.5451 34.4373 32.5259 34.3822 32.5152 34.3151C32.5044 34.2485 32.499 34.1725 32.499 34.0881C32.499 34.0461 32.4994 34.0064 32.5002 33.9682C32.5009 33.93 32.5036 33.895 32.5082 33.8622C32.5221 33.7508 32.5532 33.6953 32.6016 33.6953C32.6092 33.6953 32.6158 33.7003 32.6219 33.7103C32.6289 33.7176 32.6331 33.73 32.6346 33.7465V33.8575C32.6346 33.9169 32.6538 33.9689 32.6926 34.0136C32.7314 34.0588 32.7802 34.0888 32.8393 34.1046C32.8985 34.1201 32.9607 34.1316 33.026 34.1389C33.0909 34.1463 33.1654 34.1497 33.2488 34.1497C33.4059 34.1497 33.5457 34.1458 33.6686 34.1377C33.7916 34.1296 33.8968 34.1196 33.9848 34.1073C34.0335 34.1027 34.0577 34.0896 34.0577 34.0676C34.0577 34.041 34.0335 34.0052 33.9848 33.96C33.9521 33.9288 33.9283 33.9072 33.9125 33.8945C33.8972 33.8818 33.8884 33.8756 33.8872 33.8756C33.8898 33.8567 33.8983 33.8328 33.9114 33.8043C33.9248 33.7757 33.9433 33.7403 33.9667 33.6975C34.0166 33.6108 34.0469 33.5676 34.0577 33.5676C34.0727 33.5676 34.0869 33.5749 34.0995 33.5903C34.1491 33.6451 34.186 33.7064 34.2113 33.7742C34.2364 33.8418 34.2487 33.9139 34.2487 33.9898ZM33.6241 33.3781C33.6241 33.3796 33.6107 33.3942 33.5834 33.4224C33.5561 33.4505 33.52 33.4899 33.4751 33.54C33.4701 33.54 33.4659 33.5404 33.4628 33.5411C33.4597 33.5419 33.4536 33.5423 33.4444 33.5423C33.4417 33.5423 33.4328 33.5365 33.419 33.5245C33.4048 33.513 33.3848 33.4922 33.3579 33.4625C33.3345 33.4374 33.3168 33.4189 33.3045 33.4066C33.2826 33.4332 33.2408 33.4787 33.1793 33.5423C33.1758 33.5423 33.1736 33.5427 33.1728 33.5435C33.172 33.5442 33.1678 33.5446 33.1601 33.5446C33.1616 33.5446 33.1528 33.5365 33.1336 33.5203C33.114 33.5037 33.0933 33.486 33.071 33.4664C33.0483 33.4471 33.0283 33.429 33.0099 33.4116C32.9918 33.3946 32.9845 33.3843 32.9884 33.3804C32.9884 33.3773 33.0014 33.3619 33.0275 33.3341C33.0537 33.3064 33.0917 33.2643 33.142 33.2081H33.1555C33.1647 33.2081 33.1808 33.2197 33.2046 33.2432C33.225 33.2648 33.2576 33.2983 33.3022 33.3438C33.3068 33.3407 33.3106 33.3365 33.3137 33.3311C33.3402 33.3037 33.3778 33.2621 33.4262 33.2058H33.4443C33.4535 33.2058 33.4712 33.2178 33.4969 33.2416C33.5226 33.2655 33.5649 33.3056 33.624 33.3619L33.6241 33.3781Z" fill="#2F428D"/>
<path d="M34.918 34.4913C34.918 34.5715 34.9114 34.6459 34.898 34.7153C34.8845 34.7847 34.8665 34.8517 34.8427 34.9172C34.8058 34.9978 34.7628 35.0576 34.7136 35.0961C34.6649 35.1343 34.6038 35.1535 34.5312 35.1535C34.4954 35.1535 34.4586 35.1527 34.4209 35.1512C34.3829 35.1496 34.3387 35.1446 34.2888 35.1365C34.2204 35.1273 34.1709 35.118 34.1398 35.1092C34.1086 35.1 34.0933 35.0895 34.0933 35.0784C34.0963 35.066 34.1267 35.034 34.1843 34.9816C34.2419 34.9296 34.3249 34.8567 34.4332 34.7631C34.5404 34.674 34.6195 34.6023 34.6709 34.548C34.7224 34.4936 34.7486 34.4516 34.7486 34.4219C34.7486 34.3715 34.7117 34.3078 34.6379 34.23C34.5934 34.1845 34.5581 34.1479 34.5323 34.1209C34.5065 34.0939 34.4889 34.0727 34.4801 34.0565C34.4874 34.0446 34.4977 34.0222 34.51 33.9902C34.5227 33.9582 34.5435 33.9143 34.573 33.858C34.6353 33.7416 34.6702 33.6833 34.6779 33.6833C34.6856 33.6833 34.6971 33.6907 34.7132 33.7061C34.7812 33.8071 34.8327 33.9224 34.8669 34.0507C34.9007 34.1795 34.918 34.3263 34.918 34.4913Z" fill="#2F428D"/>
<path d="M35.1482 33.6508L35.1367 33.2442C35.2331 33.1212 35.2954 33.0472 35.323 33.0221C35.3507 32.9975 35.3664 32.9851 35.3702 32.9851C35.3929 32.9851 35.404 33.0121 35.404 33.0661L35.4086 33.4269L35.4132 33.9554C35.4156 33.9677 35.4174 33.9846 35.419 34.0062C35.4205 34.0278 35.4255 34.0494 35.4336 34.071C35.442 34.0922 35.4543 34.1107 35.4708 34.1261C35.4869 34.1419 35.5108 34.1496 35.5419 34.1496H35.7566C35.7843 34.1496 35.8092 34.1716 35.8319 34.216C35.8546 34.2599 35.8661 34.3227 35.8661 34.4041C35.8661 34.5694 35.8304 34.6519 35.7589 34.6519H35.6748C35.583 34.6504 35.505 34.6377 35.4405 34.613C35.3759 34.5887 35.3233 34.5536 35.2826 34.5082C35.2415 34.4623 35.2111 34.4049 35.1915 34.3351C35.1716 34.2657 35.1612 34.1832 35.1596 34.088L35.1482 33.6508Z" fill="#2F428D"/>
<path d="M37.0734 34.3995C37.0734 34.568 37.0457 34.652 36.9912 34.652C36.9047 34.652 36.8317 34.6412 36.7718 34.6196C36.7119 34.5976 36.6616 34.5633 36.6217 34.5163C36.5982 34.5024 36.5679 34.4458 36.5306 34.3459C36.5184 34.2958 36.5072 34.26 36.4972 34.238C36.4868 34.2164 36.4811 34.2057 36.4795 34.2057C36.4619 34.2211 36.443 34.2396 36.4231 34.2616C36.4031 34.2835 36.375 34.3124 36.3393 34.3483C36.2848 34.4123 36.2368 34.4635 36.1949 34.5025C36.1534 34.5414 36.1154 34.5711 36.0812 34.5915C36.0455 34.6096 35.9986 34.6243 35.9402 34.6354C35.8818 34.6466 35.8131 34.652 35.7343 34.652C35.7182 34.652 35.7032 34.6435 35.6894 34.6262C35.6752 34.6092 35.6637 34.5803 35.6544 34.5402C35.6471 34.5167 35.6402 34.4924 35.6348 34.4682C35.6291 34.4439 35.626 34.4211 35.626 34.3995C35.626 34.233 35.6556 34.1498 35.7147 34.1498H36.1234C36.1445 34.1498 36.1695 34.1474 36.1983 34.1424C36.2271 34.1374 36.2609 34.1282 36.2997 34.1143C36.3869 34.0877 36.4303 34.0565 36.4303 34.0206C36.4303 34.0133 36.418 34.0025 36.3931 33.9894C36.3677 33.9759 36.3285 33.9624 36.2747 33.9489C36.2244 33.9328 36.1845 33.9197 36.1541 33.9092C36.1238 33.8992 36.1 33.8942 36.0835 33.8942C36.0616 33.8942 36.0404 33.9 36.0205 33.9115C36.0001 33.9235 35.982 33.9427 35.9663 33.9693C35.9509 33.9975 35.9375 34.0179 35.926 34.0303C35.9141 34.043 35.9045 34.0492 35.8968 34.0492C35.8657 34.0492 35.8503 34.0295 35.8503 33.9898C35.8503 33.9778 35.8522 33.959 35.856 33.9339C35.8599 33.9088 35.8668 33.8738 35.8776 33.8291C35.8902 33.7778 35.9033 33.7346 35.9156 33.6996C35.9283 33.6641 35.9398 33.6356 35.9502 33.6144C35.9951 33.5458 36.0604 33.5115 36.146 33.5115C36.1818 33.5115 36.2329 33.5176 36.2997 33.53C36.3661 33.5419 36.448 33.5624 36.544 33.5905C36.6669 33.6233 36.7906 33.658 36.915 33.6953C36.927 33.6969 36.9331 33.7111 36.9331 33.7377C36.9331 33.752 36.93 33.7732 36.9243 33.801C36.9181 33.8287 36.9112 33.8642 36.9035 33.9066C36.8939 33.9486 36.8855 33.9833 36.8785 34.0107C36.8716 34.0381 36.8663 34.0592 36.8616 34.0743C36.8616 34.082 36.8582 34.0862 36.852 34.087C36.8455 34.0878 36.8363 34.0881 36.824 34.0881C36.8101 34.0881 36.789 34.0858 36.7602 34.0812C36.7314 34.0766 36.7099 34.0742 36.6953 34.0742C36.6788 34.0742 36.6658 34.0769 36.6562 34.0823C36.6466 34.0877 36.642 34.0923 36.642 34.0962C36.642 34.132 36.7583 34.1498 36.9911 34.1498C37.0457 34.1497 37.0734 34.233 37.0734 34.3995ZM36.178 34.9912C36.178 34.9897 36.1918 34.9735 36.2198 34.943C36.2478 34.9125 36.2867 34.8721 36.3358 34.8208C36.3404 34.8208 36.3447 34.8204 36.3481 34.8196C36.3512 34.8189 36.3569 34.8185 36.3642 34.8185C36.3673 34.8185 36.3773 34.8247 36.3934 34.8362C36.4095 34.8482 36.4311 34.8698 36.4576 34.901C36.4833 34.9314 36.5037 34.9534 36.5186 34.9677C36.5332 34.9816 36.5413 34.9897 36.5428 34.9912C36.5428 34.9939 36.529 35.0105 36.5013 35.0401C36.4737 35.0698 36.4349 35.1141 36.385 35.1735H36.3666C36.3577 35.1735 36.3397 35.1608 36.3132 35.1353C36.2867 35.1099 36.2418 35.0675 36.178 35.0081V34.9912Z" fill="#2F428D"/>
<path d="M37.5706 33.9897C37.5721 34.0803 37.5586 34.1659 37.5306 34.246C37.5025 34.3262 37.4634 34.3968 37.4127 34.4569C37.3624 34.517 37.3021 34.5645 37.2314 34.5995C37.1607 34.6346 37.0835 34.6519 36.9994 34.6519C36.9775 34.6519 36.9591 34.6392 36.9441 34.6142C36.9295 34.5891 36.9191 34.5579 36.913 34.5205C36.9068 34.4835 36.9041 34.4434 36.9049 34.4006C36.9057 34.3582 36.9095 34.3181 36.9168 34.2803C36.9242 34.2426 36.9341 34.2114 36.9472 34.1867C36.9598 34.162 36.976 34.1497 36.9948 34.1497H37.1926C37.2594 34.1497 37.3098 34.1423 37.344 34.1273C37.3781 34.1127 37.3954 34.0919 37.3954 34.0653C37.3954 34.0371 37.377 34.0009 37.3405 33.9574C37.3044 33.9134 37.2441 33.8552 37.16 33.782C37.1585 33.7774 37.1619 33.7654 37.1707 33.7461C37.1792 33.7269 37.1903 33.7033 37.2038 33.676C37.2168 33.6486 37.2314 33.6197 37.2468 33.5893C37.2625 33.5588 37.2775 33.5307 37.2925 33.5052C37.3071 33.4798 37.3202 33.459 37.3317 33.4424C37.3428 33.4262 37.3509 33.4181 37.3555 33.4181C37.3727 33.4181 37.3939 33.4389 37.4185 33.4806C37.4431 33.5226 37.4673 33.5735 37.4907 33.6336C37.5142 33.6937 37.5337 33.7566 37.5495 33.8221C37.5648 33.8876 37.5721 33.9435 37.5706 33.9897ZM37.6205 33.1644C37.6205 33.166 37.6067 33.181 37.5794 33.2092C37.5521 33.2373 37.516 33.2762 37.4715 33.3268C37.4661 33.3268 37.4619 33.3271 37.4588 33.3279C37.4557 33.3286 37.45 33.329 37.4408 33.329C37.4377 33.329 37.4292 33.3229 37.415 33.3113C37.4012 33.2994 37.3809 33.2786 37.3543 33.2489C37.3309 33.2238 37.3128 33.2053 37.301 33.193C37.2787 33.2196 37.2372 33.2651 37.1757 33.329C37.1719 33.329 37.1696 33.3294 37.1688 33.3298C37.168 33.3306 37.1638 33.331 37.1565 33.331C37.1581 33.331 37.1489 33.3229 37.1296 33.3067C37.1104 33.2901 37.0893 33.2724 37.067 33.2531C37.0447 33.2335 37.0244 33.2154 37.0063 33.198C36.9879 33.1811 36.9809 33.1707 36.9844 33.1668C36.9844 33.1637 36.9975 33.1483 37.024 33.1206C37.0501 33.0928 37.0881 33.0508 37.138 32.9945H37.1519C37.1607 32.9945 37.1773 33.0061 37.2007 33.03C37.221 33.0512 37.2537 33.0847 37.2986 33.1302C37.3032 33.1271 37.3071 33.1228 37.3097 33.1179C37.3366 33.0905 37.3739 33.0485 37.4227 32.9922H37.4407C37.4499 32.9922 37.4672 33.0041 37.4929 33.028C37.5187 33.0519 37.5613 33.0924 37.6205 33.1487L37.6205 33.1644Z" fill="#2F428D"/>
<path d="M39.9288 34.3976C39.9288 34.5672 39.9012 34.652 39.8459 34.652C39.7633 34.652 39.6918 34.6265 39.6319 34.576C39.572 34.5256 39.5309 34.4581 39.5082 34.3733C39.4391 34.5402 39.3327 34.6331 39.1882 34.652H38.5264C38.2376 34.652 38.0928 34.4974 38.0928 34.1887L38.1008 33.9716C38.1039 33.8911 38.1128 33.8271 38.1277 33.7804C38.1423 33.7334 38.1612 33.7118 38.1838 33.7149C38.1969 33.7176 38.2065 33.7253 38.2123 33.7369C38.2184 33.7489 38.223 33.762 38.2261 33.7762C38.2292 33.7909 38.2307 33.8059 38.2307 33.8221V33.9065C38.2322 33.9501 38.243 33.9871 38.2638 34.0183C38.2841 34.0495 38.3099 34.0753 38.3406 34.0954C38.3713 34.1158 38.4067 34.1301 38.4474 34.139C38.4881 34.1475 38.53 34.1513 38.573 34.1497H39.1534C39.1903 34.1451 39.221 34.1351 39.2456 34.1193C39.2697 34.1039 39.289 34.0842 39.3028 34.0607C39.317 34.0372 39.3266 34.011 39.332 33.9821C39.337 33.9532 39.3396 33.9247 39.3396 33.8961L39.317 33.1279L39.5467 32.9475C39.5467 33.0724 39.5471 33.1776 39.5478 33.2632C39.5486 33.3488 39.5494 33.4197 39.5502 33.4764C39.5509 33.5326 39.5513 33.5762 39.5513 33.6074C39.5513 33.6363 39.5521 33.6587 39.5532 33.6741C39.5544 33.6899 39.5548 33.6995 39.5548 33.7034V33.7103C39.5494 33.8394 39.572 33.9435 39.6224 34.0218C39.6731 34.1004 39.7476 34.1428 39.8459 34.1497C39.8717 34.1513 39.892 34.1733 39.907 34.2161C39.9215 34.2584 39.9288 34.319 39.9288 34.3976ZM39.0415 33.338C39.0431 33.3457 39.0415 33.3553 39.0373 33.3673C39.0327 33.3788 39.0266 33.3904 39.0197 33.4016C39.0123 33.4123 39.0043 33.4224 38.9951 33.4316C38.9859 33.4409 38.9774 33.4471 38.969 33.4497C38.9194 33.4582 38.8637 33.4775 38.8015 33.5076C38.7396 33.5377 38.6647 33.5754 38.5776 33.6213C38.5653 33.6213 38.5595 33.6124 38.5595 33.5951C38.5595 33.5654 38.6098 33.5191 38.7109 33.4567C38.6767 33.4278 38.6498 33.4035 38.6306 33.3838C38.611 33.3638 38.6014 33.348 38.6014 33.3356C38.6014 33.3167 38.6098 33.2955 38.6271 33.2724C38.644 33.2493 38.6674 33.2242 38.697 33.1976C38.7251 33.1725 38.7504 33.1544 38.7727 33.144C38.795 33.1333 38.8195 33.1279 38.846 33.1279C38.8848 33.1279 38.9148 33.134 38.9363 33.1464C38.9582 33.1583 38.9747 33.178 38.9859 33.2046V33.2331H38.9486C38.9379 33.2331 38.924 33.2335 38.9068 33.2343C38.8899 33.2351 38.8695 33.237 38.8461 33.24C38.7604 33.2474 38.7174 33.2593 38.7174 33.2751C38.7174 33.2828 38.7228 33.2906 38.7328 33.2983C38.7432 33.3056 38.7574 33.3183 38.7754 33.3356C38.7931 33.348 38.8081 33.358 38.8204 33.3661C38.8331 33.3742 38.8431 33.378 38.8507 33.378C38.8538 33.378 38.8711 33.3738 38.903 33.3649C38.9348 33.356 38.9782 33.3433 39.0328 33.3268L39.0417 33.331L39.0415 33.338Z" fill="#2F428D"/>
<path d="M40.4138 33.9897C40.4154 34.0803 40.4019 34.1658 40.3739 34.246C40.3458 34.3262 40.3066 34.3967 40.2559 34.4569C40.2056 34.517 40.1453 34.5644 40.0746 34.5995C40.004 34.6345 39.9268 34.6519 39.8427 34.6519C39.8207 34.6519 39.8023 34.6392 39.7874 34.6141C39.7728 34.5891 39.7624 34.5578 39.7562 34.5205C39.7501 34.4834 39.7474 34.4434 39.7482 34.4006C39.749 34.3582 39.7528 34.3181 39.7601 34.2803C39.7674 34.2425 39.7774 34.2113 39.7904 34.1867C39.8031 34.162 39.8192 34.1496 39.8381 34.1496H40.0359C40.1027 34.1496 40.153 34.1423 40.1872 34.1273C40.2214 34.1126 40.2387 34.0918 40.2387 34.0652C40.2387 34.0371 40.2203 34.0009 40.1838 33.9573C40.1477 33.9134 40.0874 33.8552 40.0033 33.7819C40.0017 33.7773 40.0052 33.7654 40.014 33.7461C40.0224 33.7268 40.0336 33.7033 40.047 33.676C40.0601 33.6486 40.0747 33.6197 40.0901 33.5892C40.1058 33.5588 40.1208 33.5307 40.1358 33.5052C40.1504 33.4798 40.1634 33.459 40.1749 33.4424C40.1861 33.4262 40.1941 33.4181 40.1987 33.4181C40.216 33.4181 40.2372 33.4389 40.2618 33.4805C40.2863 33.5225 40.3105 33.5735 40.334 33.6336C40.3574 33.6937 40.377 33.7565 40.3927 33.8221C40.4081 33.8875 40.4154 33.9434 40.4138 33.9897ZM39.8926 33.0584C39.8926 33.0569 39.9068 33.0407 39.9349 33.0102C39.9629 32.9798 40.0017 32.9393 40.0508 32.888C40.0555 32.888 40.0593 32.8876 40.0628 32.8869C40.0662 32.8861 40.0716 32.8857 40.0793 32.8857C40.0824 32.8857 40.092 32.8919 40.1081 32.9035C40.1246 32.9154 40.1461 32.937 40.1726 32.9682C40.1984 32.9987 40.2187 33.0207 40.2333 33.0349C40.2483 33.0488 40.2564 33.0569 40.2579 33.0584C40.2579 33.0615 40.2441 33.0777 40.2164 33.1074C40.1888 33.1371 40.15 33.1814 40.0996 33.2408H40.0816C40.0724 33.2408 40.0547 33.228 40.0282 33.2026C40.0017 33.1771 39.9564 33.1347 39.8926 33.0754V33.0584Z" fill="#2F428D"/>
<path d="M40.6829 33.6508L40.6714 33.2442C40.7678 33.1212 40.83 33.0472 40.8577 33.0221C40.8853 32.9975 40.9011 32.9851 40.9049 32.9851C40.9276 32.9851 40.9387 33.0121 40.9387 33.0661L40.9433 33.4269L40.9479 33.9554C40.9502 33.9677 40.9521 33.9846 40.9536 34.0062C40.9552 34.0278 40.9602 34.0494 40.9682 34.071C40.9767 34.0922 40.989 34.1107 41.0055 34.1261C41.0216 34.1419 41.0454 34.1496 41.0766 34.1496H41.2913C41.3189 34.1496 41.3439 34.1716 41.3666 34.216C41.3892 34.2599 41.4007 34.3227 41.4007 34.4041C41.4007 34.5694 41.365 34.6519 41.2936 34.6519H41.2094C41.1176 34.6504 41.0397 34.6377 40.9751 34.613C40.9106 34.5887 40.8579 34.5536 40.8172 34.5082C40.7761 34.4623 40.7458 34.4049 40.7262 34.3351C40.7062 34.2657 40.6959 34.1832 40.6943 34.088L40.6829 33.6508Z" fill="#2F428D"/>
<path d="M41.865 33.9898C41.8665 34.0804 41.8531 34.166 41.825 34.2461C41.797 34.3263 41.7578 34.3968 41.7071 34.457C41.6568 34.5171 41.5965 34.5645 41.5258 34.5996C41.4551 34.6347 41.3779 34.652 41.2938 34.652C41.2719 34.652 41.2535 34.6393 41.2385 34.6142C41.2239 34.5892 41.2136 34.558 41.2074 34.5206C41.2013 34.4836 41.1986 34.4435 41.1994 34.4007C41.2001 34.3583 41.204 34.3182 41.2113 34.2804C41.2186 34.2427 41.2285 34.2114 41.2416 34.1868C41.2543 34.1621 41.2704 34.1497 41.2892 34.1497H41.487C41.5539 34.1497 41.6042 34.1424 41.6384 34.1274C41.6726 34.1128 41.6899 34.092 41.6899 34.0654C41.6899 34.0372 41.6714 34.001 41.635 33.9574C41.5989 33.9135 41.5386 33.8553 41.4544 33.7821C41.4529 33.7774 41.4564 33.7655 41.4652 33.7462C41.4736 33.727 41.4848 33.7034 41.4982 33.6761C41.5113 33.6487 41.5259 33.6198 41.5412 33.5894C41.557 33.5589 41.572 33.5308 41.5869 33.5053C41.6015 33.4799 41.6146 33.4591 41.6261 33.4425C41.6372 33.4263 41.6453 33.4182 41.6499 33.4182C41.6672 33.4182 41.6883 33.439 41.7129 33.4807C41.7375 33.5227 41.7617 33.5736 41.7851 33.6337C41.8086 33.6938 41.8282 33.7566 41.8439 33.8222C41.8592 33.8877 41.8665 33.9435 41.865 33.9898ZM41.419 35.0209C41.419 35.0194 41.4329 35.0032 41.4609 34.9727C41.4889 34.9423 41.5277 34.9018 41.5769 34.8505C41.5815 34.8505 41.5857 34.8501 41.5888 34.8494C41.5923 34.8486 41.598 34.8482 41.6053 34.8482C41.6084 34.8482 41.618 34.8544 41.6345 34.866C41.6506 34.8779 41.6721 34.8995 41.6986 34.9307C41.7244 34.9612 41.7447 34.9831 41.7597 34.9974C41.7743 35.0113 41.7824 35.0194 41.7839 35.0209C41.7839 35.0236 41.7701 35.0402 41.7424 35.0699C41.7148 35.0996 41.676 35.1439 41.626 35.2032H41.6076C41.5987 35.2032 41.5807 35.1905 41.5542 35.1651C41.5277 35.1396 41.4828 35.0972 41.419 35.0379L41.419 35.0209Z" fill="#2F428D"/>
<path d="M19.7508 33.2109V33.4738H19.4044V34.8021H19.0848V33.4738H18.7383V33.2109H19.7508Z" fill="#2F428D"/>
<path d="M20.7758 33.2109V33.4738H20.2094V33.8485H20.7424V34.1114H20.2094V34.5392H20.7979V34.8021H19.8896V33.2109H20.7758Z" fill="#2F428D"/>
<path d="M21.7791 33.211V34.3566C21.7791 34.6954 21.6236 34.8334 21.3017 34.8334C20.964 34.8334 20.8818 34.6171 20.8818 34.3677V34.2983H21.1751V34.3477C21.1751 34.5169 21.2016 34.5971 21.3172 34.5971C21.4327 34.5971 21.4593 34.5169 21.4593 34.3477V33.2109L21.7791 33.211Z" fill="#2F428D"/>
<path d="M22.2976 33.2109H22.6928L23.1127 34.8021H22.7794L22.7063 34.4656H22.2843L22.211 34.8021H21.8779L22.2976 33.2109ZM22.3399 34.2027H22.6508L22.4975 33.4873H22.4931L22.3399 34.2027Z" fill="#2F428D"/>
<path d="M23.2251 33.2109H23.8159C24.0802 33.2109 24.2379 33.347 24.2379 33.6211C24.2379 33.835 24.1534 33.9753 23.9736 34.0131V34.0177C24.1912 34.0466 24.2223 34.1669 24.2288 34.5034C24.2311 34.673 24.2399 34.7555 24.2999 34.7887V34.8022H23.9536C23.9202 34.7575 23.9158 34.6974 23.9136 34.6349L23.9046 34.3296C23.8981 34.2052 23.847 34.1292 23.7158 34.1292H23.5449V34.8022H23.2251V33.2109ZM23.5449 33.9063H23.6782C23.8314 33.9063 23.9181 33.8396 23.9181 33.6677C23.9181 33.5208 23.8447 33.4472 23.6959 33.4472H23.5449L23.5449 33.9063Z" fill="#2F428D"/>
<path d="M24.7702 33.2109H25.1655L25.5853 34.8021H25.2521L25.1789 34.4656H24.757L24.6836 34.8021H24.3506L24.7702 33.2109ZM24.8125 34.2027H25.1234L24.9702 33.4873H24.9658L24.8125 34.2027Z" fill="#2F428D"/>
<path d="M26.5038 33.2109V33.4738H26.1573V34.8021H25.8377V33.4738H25.4912V33.2109H26.5038Z" fill="#2F428D"/>
<path d="M27.043 33.2109H27.5783C27.8402 33.2109 28.029 33.3092 28.029 33.6145C28.029 33.7861 27.9491 33.9175 27.7891 33.9618V33.9665C27.9668 33.9911 28.0778 34.1226 28.0778 34.3365C28.0778 34.5859 27.9557 34.8022 27.5827 34.8022H27.043L27.043 33.2109ZM27.3628 33.8639H27.4538C27.6315 33.8639 27.7092 33.8061 27.7092 33.6546C27.7092 33.5031 27.6382 33.4472 27.4782 33.4472H27.3628L27.3628 33.8639ZM27.3628 34.5658H27.4872C27.6403 34.5658 27.7448 34.5103 27.7448 34.3253C27.7448 34.1403 27.6403 34.0867 27.5005 34.0867H27.3628V34.5658Z" fill="#2F428D"/>
<path d="M28.5883 33.2109H28.9835L29.4034 34.8021H29.0699L28.997 34.4656H28.5748L28.5015 34.8021H28.1685L28.5883 33.2109ZM28.6305 34.2027H28.9412L28.788 33.4873H28.7838L28.6305 34.2027Z" fill="#2F428D"/>
<path d="M29.8844 33.2109L30.2708 34.3006H30.2754V33.2109H30.5685V34.8021H30.2044L29.8133 33.6878H29.8087V34.8021H29.5156V33.2109H29.8844Z" fill="#2F428D"/>
<path d="M31.112 33.2109V33.8485H31.1162L31.5202 33.2109H31.8667L31.4362 33.8928L31.9155 34.8021H31.556L31.2295 34.1491L31.112 34.3295V34.8021H30.792V33.2109H31.112Z" fill="#2F428D"/>
<path fill-rule="evenodd" clip-rule="evenodd" d="M16.2174 41.8633H3.34766C3.34766 43.1319 4.37249 44.1604 5.6367 44.1604H16.2174V41.8633Z" fill="#2F428D"/>
<path fill-rule="evenodd" clip-rule="evenodd" d="M14.7803 48.5684H17.9896C18.9942 48.5684 19.8159 47.7434 19.8159 46.7353V41.8708H17.532V45.8093C17.532 46.1025 17.293 46.3429 17.0008 46.3429H14.7803V48.5684Z" fill="#2F428D"/>
<path fill-rule="evenodd" clip-rule="evenodd" d="M21.0698 43.0273V37.0515H23.2597V42.3951C23.2597 42.8293 23.6137 43.1845 24.0464 43.1845H28.6392C29.2525 43.1845 29.7498 42.6855 29.7498 42.07V41.6963L24.9884 41.7259L25.0183 39.4628H31.3737V42.6719C31.3737 42.9598 31.6063 43.1932 31.8931 43.1932H37.6395V45.3091H33.0118C31.8614 45.3091 31.3143 44.1388 31.25 43.8496C30.9469 44.6644 29.9067 45.3244 28.8962 45.3244H23.3589C22.0947 45.3244 21.0698 44.296 21.0698 43.0273Z" fill="#2F428D"/>
<path fill-rule="evenodd" clip-rule="evenodd" d="M45.4517 49.2543H41.9583C40.9342 49.2543 40.0789 48.4914 39.9287 47.5033C39.7794 48.4914 38.9238 49.2543 37.8991 49.2543H28.2847V47.1418H38.3033C38.6466 47.1418 38.9289 46.8589 38.9289 46.5142V40.9231H40.9293V46.5142C40.9293 46.8586 41.2108 47.1418 41.5546 47.1418H45.4517V49.2543Z" fill="#2F428D"/>
<path fill-rule="evenodd" clip-rule="evenodd" d="M46.8096 46.8864V40.9163H49.0001V46.5279C49.0001 46.8148 49.234 47.0495 49.5198 47.0495H53.1602V49.1835H49.0986C47.8344 49.1835 46.8096 48.1551 46.8096 46.8864Z" fill="#2F428D"/>
<path d="M50.7649 53.227C51.5048 53.227 52.1045 52.6251 52.1045 51.8827C52.1045 51.1402 51.5048 50.5383 50.7649 50.5383C50.0251 50.5383 49.4253 51.1402 49.4253 51.8827C49.4253 52.6251 50.0251 53.227 50.7649 53.227Z" fill="#2F428D"/>
<path d="M43.9343 44.8347C44.6742 44.8347 45.274 44.2328 45.274 43.4903C45.274 42.7479 44.6742 42.146 43.9343 42.146C43.1945 42.146 42.5947 42.7479 42.5947 43.4903C42.5947 44.2328 43.1945 44.8347 43.9343 44.8347Z" fill="#2F428D"/>
<path d="M36.6707 40.3876C37.4105 40.3876 38.0103 39.7858 38.0103 39.0433C38.0103 38.3009 37.4105 37.699 36.6707 37.699C35.9308 37.699 35.3311 38.3009 35.3311 39.0433C35.3311 39.7858 35.9308 40.3876 36.6707 40.3876Z" fill="#2F428D"/>
<path d="M33.9915 40.3876C34.7313 40.3876 35.3311 39.7858 35.3311 39.0433C35.3311 38.3009 34.7313 37.699 33.9915 37.699C33.2516 37.699 32.6519 38.3009 32.6519 39.0433C32.6519 39.7858 33.2516 40.3876 33.9915 40.3876Z" fill="#2F428D"/>
<path d="M11.5149 40.3876C12.2548 40.3876 12.8545 39.7858 12.8545 39.0433C12.8545 38.3009 12.2548 37.699 11.5149 37.699C10.7751 37.699 10.1753 38.3009 10.1753 39.0433C10.1753 39.7858 10.7751 40.3876 11.5149 40.3876Z" fill="#2F428D"/>
<path d="M24.8425 49.5156C25.5824 49.5156 26.1822 48.9137 26.1822 48.1712C26.1822 47.4288 25.5824 46.8269 24.8425 46.8269C24.1027 46.8269 23.5029 47.4288 23.5029 48.1712C23.5029 48.9137 24.1027 49.5156 24.8425 49.5156Z" fill="#2F428D"/>
<path d="M8.83571 40.3876C9.57556 40.3876 10.1753 39.7858 10.1753 39.0433C10.1753 38.3009 9.57556 37.699 8.83571 37.699C8.09586 37.699 7.49609 38.3009 7.49609 39.0433C7.49609 39.7858 8.09586 40.3876 8.83571 40.3876Z" fill="#2F428D"/>
</svg>
